<?xml version="1.0" encoding="UTF-8"?>
<svg version="1.1" xmlns="http://www.w3.org/2000/svg" width="256" height="256">
<path d="M0 0 C84.48 0 168.96 0 256 0 C256 84.48 256 168.96 256 256 C171.52 256 87.04 256 0 256 C0 171.52 0 87.04 0 0 Z " fill="#154061" transform="translate(0,0)"/>
<path d="M0 0 C3.32908512 2.01001366 5.7859677 4.85952605 7.86328125 8.125 C7.86328125 8.785 7.86328125 9.445 7.86328125 10.125 C8.77207031 9.32835938 8.77207031 9.32835938 9.69921875 8.515625 C17.10505534 2.27193507 24.58081409 -2.79154693 34.6328125 -2.2578125 C40.14352648 -1.31201571 45.02965622 0.79757328 48.80078125 5 C52.00813886 9.85963274 53.1165264 14.15782095 53.09033203 19.94677734 C53.09018097 21.06748627 53.09002991 22.18819519 53.08987427 23.34286499 C53.0795517 24.53682892 53.06922913 25.73079285 53.05859375 26.9609375 C53.05576385 28.19542633 53.05293396 29.42991516 53.05001831 30.70181274 C53.03884647 34.63464149 53.01374689 38.56724037 52.98828125 42.5 C52.9771195 45.17056959 52.96912244 47.84113701 52.9609375 50.51171875 C52.93891687 57.04956739 52.90440717 63.58724475 52.86328125 70.125 C47.91328125 70.125 42.96328125 70.125 37.86328125 70.125 C37.84869873 68.67206543 37.83411621 67.21913086 37.8190918 65.72216797 C37.76103007 60.32104129 37.68379686 54.92032805 37.60083008 49.51953125 C37.56761792 47.18398763 37.53957449 44.84836447 37.5168457 42.51269531 C37.48323224 39.15134855 37.43091122 35.79072831 37.375 32.4296875 C37.36861008 31.38884003 37.36222015 30.34799255 37.3556366 29.27560425 C37.2463261 23.86057767 37.02368201 19.74186033 33.86328125 15.125 C29.59143345 12.27710147 25.87842159 12.37680329 20.86328125 13.125 C16.97558587 14.85357861 13.8618796 17.12640165 10.86328125 20.125 C10.532587 22.34696327 10.532587 22.34696327 10.54443359 24.94189453 C10.5245639 25.94278107 10.50469421 26.9436676 10.48422241 27.97488403 C10.4726712 29.05825043 10.46112 30.14161682 10.44921875 31.2578125 C10.4298526 32.36478485 10.41048645 33.4717572 10.39053345 34.61227417 C10.33061371 38.15810369 10.28430252 41.70396545 10.23828125 45.25 C10.2001129 47.64975397 10.16106186 50.04949408 10.12109375 52.44921875 C10.02490191 58.3410336 9.94091668 64.23291259 9.86328125 70.125 C4.91328125 70.125 -0.03671875 70.125 -5.13671875 70.125 C-5.15130127 68.67206543 -5.16588379 67.21913086 -5.1809082 65.72216797 C-5.23896993 60.32104129 -5.31620314 54.92032805 -5.39916992 49.51953125 C-5.43238208 47.18398763 -5.46042551 44.84836447 -5.4831543 42.51269531 C-5.51676776 39.15134855 -5.56908878 35.79072831 -5.625 32.4296875 C-5.63138992 31.38884003 -5.63777985 30.34799255 -5.6443634 29.27560425 C-5.75404953 23.84196926 -6.02109105 19.78958081 -9.13671875 15.125 C-13.08616072 12.35557423 -17.49582161 12.35784679 -22.13671875 13.125 C-25.98426197 14.8881842 -29.15055853 17.13883978 -32.13671875 20.125 C-32.467413 22.34696327 -32.467413 22.34696327 -32.45556641 24.94189453 C-32.4754361 25.94278107 -32.49530579 26.9436676 -32.51577759 27.97488403 C-32.5273288 29.05825043 -32.53888 30.14161682 -32.55078125 31.2578125 C-32.5701474 32.36478485 -32.58951355 33.4717572 -32.60946655 34.61227417 C-32.66938629 38.15810369 -32.71569748 41.70396545 -32.76171875 45.25 C-32.7998871 47.64975397 -32.83893814 50.04949408 -32.87890625 52.44921875 C-32.97509809 58.3410336 -33.05908332 64.23291259 -33.13671875 70.125 C-38.08671875 70.125 -43.03671875 70.125 -48.13671875 70.125 C-48.13671875 47.025 -48.13671875 23.925 -48.13671875 0.125 C-43.18671875 0.125 -38.23671875 0.125 -33.13671875 0.125 C-32.80671875 2.765 -32.47671875 5.405 -32.13671875 8.125 C-31.18796875 7.2175 -30.23921875 6.31 -29.26171875 5.375 C-20.82908417 -1.7995399 -10.37990324 -4.32669314 0 0 Z " fill="#F8FBFC" transform="translate(87.13671875,92.875)"/>
<path d="M0 0 C8.13132944 5.78575364 13.15019207 13.85029661 15.234375 23.58984375 C15.234375 27.87984375 15.234375 32.16984375 15.234375 36.58984375 C-2.585625 36.58984375 -20.405625 36.58984375 -38.765625 36.58984375 C-35.21475255 45.46702487 -33.43579713 49.09865496 -25.92578125 53.72265625 C-18.27905258 56.79240989 -9.4181351 54.62920875 -2.10546875 51.66015625 C0.02980002 50.68342229 2.13420701 49.63992774 4.234375 48.58984375 C6.214375 51.22984375 8.194375 53.86984375 10.234375 56.58984375 C7.01725539 63.02408297 0.48066097 65.10679165 -6.13671875 67.41796875 C-16.72426617 70.1377057 -27.78027645 69.41416662 -37.3984375 64.1484375 C-46.70896659 58.159127 -51.82455643 49.92823692 -54.3203125 39.20703125 C-56.18240895 28.26313107 -54.40164748 18.38825889 -47.953125 9.27734375 C-35.68776903 -5.71705393 -16.97270804 -10.09583495 0 0 Z " fill="#F7FAFB" transform="translate(202.765625,96.41015625)"/>
<path d="M0 0 C5.07618477 1.91449222 9.26678549 5.29887104 12 10 C12.495 13.96 12.495 13.96 13 18 C0.13 18 -12.74 18 -26 18 C-24.62317231 9.73903383 -21.42579926 5.88919509 -15 1 C-10.54768104 -1.22615948 -4.83071626 -0.50284649 0 0 Z " fill="#194161" transform="translate(190,104)"/>
<path d="M0 0 C0.598125 0.309375 1.19625 0.61875 1.8125 0.9375 C4.08956772 2.10209704 4.08956772 2.10209704 7 3 C7 3.99 7 4.98 7 6 C4.69 6 2.38 6 0 6 C0 4.02 0 2.04 0 0 Z " fill="#31373E" transform="translate(0,250)"/>
<path d="M0 0 C0.66 0.33 1.32 0.66 2 1 C1.01 1.33 0.02 1.66 -1 2 C-1.68620031 3.32338632 -2.34786461 4.65949948 -3 6 C-4.59716811 8.06722076 -6.29136328 10.02157854 -8 12 C-8.66 11.67 -9.32 11.34 -10 11 C-7.17477391 6.32751069 -4.32239956 3.34003602 0 0 Z " fill="#284761" transform="translate(175,105)"/>
<path d="M0 0 C-1.10840529 2.92215941 -1.74561364 3.8635 -4.5625 5.375 C-7.33556109 6.83098436 -7.33556109 6.83098436 -7.8125 10.1875 C-7.874375 11.115625 -7.93625 12.04375 -8 13 C-8.33 13 -8.66 13 -9 13 C-9.4375 9.875 -9.4375 9.875 -9 6 C-6.67578455 3.18776031 -3.81201966 0 0 0 Z " fill="#25445C" transform="translate(106,107)"/>
<path d="M0 0 C0.66 0 1.32 0 2 0 C2 1.98 2 3.96 2 6 C0.02 6 -1.96 6 -4 6 C-2.84826645 3.53199953 -1.95216435 1.95216435 0 0 Z " fill="#31383A" transform="translate(254,250)"/>
<path d="M0 0 C1.98 0 3.96 0 6 0 C6 1.98 6 3.96 6 6 C3.37812506 4.95125002 2.20628639 4.35068687 0.75 1.875 C0.5025 1.25625 0.255 0.6375 0 0 Z " fill="#34373A" transform="translate(250,0)"/>
<path d="M0 0 C1.98 0 3.96 0 6 0 C6 2 6 2 4.125 4.125 C2 6 2 6 0 6 C0 4.02 0 2.04 0 0 Z " fill="#373637" transform="translate(0,0)"/>
</svg>
